<svg width="696" height="173" viewBox="0 0 696 173" fill="none" xmlns="http://www.w3.org/2000/svg">
<path d="M0.712403 132.75V40.5C0.712403 28.2 4.0874 18.525 10.8374 11.475C17.5874 4.27499 26.8124 0.674993 38.5124 0.674993C50.0624 0.674993 59.2124 4.27499 65.9624 11.475C72.7124 18.525 76.0874 28.2 76.0874 40.5V58.275C76.0874 60.525 74.9624 61.65 72.7124 61.65H48.6374C46.3874 61.65 45.2624 60.525 45.2624 58.275V45.45C45.2624 39.3 44.8124 35.025 43.9124 32.625C43.0124 30.225 41.2124 29.025 38.5124 29.025C35.6624 29.025 33.7874 30.225 32.8874 32.625C31.9874 34.875 31.5374 39.15 31.5374 45.45V127.8C31.5374 134.1 31.9874 138.45 32.8874 140.85C33.7874 143.1 35.6624 144.225 38.5124 144.225C41.2124 144.225 43.0124 143.025 43.9124 140.625C44.8124 138.225 45.2624 133.95 45.2624 127.8V114.975C45.2624 112.725 46.3874 111.6 48.6374 111.6H72.7124C74.9624 111.6 76.0874 112.725 76.0874 114.975V132.75C76.0874 145.05 72.7124 154.8 65.9624 162C59.2124 169.05 50.0624 172.575 38.5124 172.575C26.8124 172.575 17.5874 169.05 10.8374 162C4.0874 154.8 0.712403 145.05 0.712403 132.75ZM103.694 167.625V5.625C103.694 3.37499 104.819 2.24999 107.069 2.24999H131.144C133.394 2.24999 134.519 3.37499 134.519 5.625V139.275C134.519 141.525 135.644 142.65 137.894 142.65H154.994C157.244 142.65 158.369 143.775 158.369 146.025V167.625C158.369 169.875 157.244 171 154.994 171H107.069C104.819 171 103.694 169.875 103.694 167.625ZM179.057 171C176.807 171 175.907 169.725 176.357 167.175L200.657 6.29999C200.957 3.59999 202.232 2.24999 204.482 2.24999H227.882C229.832 2.24999 231.107 3.59999 231.707 6.29999L256.007 167.175C256.457 169.725 255.482 171 253.082 171H231.257C229.457 171 228.482 169.875 228.332 167.625L226.757 153.225C226.457 150.975 225.557 149.85 224.057 149.85H208.082C206.582 149.85 205.682 150.975 205.382 153.225L204.032 167.625C203.882 169.875 202.832 171 200.882 171H179.057ZM211.457 123.3H220.682C221.732 123.3 222.182 122.475 222.032 120.825L217.082 68.625C217.082 68.175 216.932 67.875 216.632 67.725C216.332 67.575 215.957 67.575 215.507 67.725C215.207 67.875 215.057 68.175 215.057 68.625L210.107 120.825C209.957 122.475 210.407 123.3 211.457 123.3ZM283.703 171C281.453 171 280.328 169.875 280.328 167.625V5.625C280.328 3.37499 281.453 2.24999 283.703 2.24999H318.353C329.903 2.24999 339.128 5.84999 346.028 13.05C352.928 20.25 356.378 30.075 356.378 42.525V66.6C356.378 78.9 353.078 88.575 346.478 95.625C345.428 96.675 344.978 98.1 345.128 99.9L355.703 166.275C356.303 169.425 355.403 171 353.003 171H329.828C327.578 171 326.228 169.575 325.778 166.725L318.353 110.25C318.053 108 317.078 106.875 315.428 106.875H314.303C312.203 106.875 311.153 108 311.153 110.25V167.625C311.153 169.875 310.028 171 307.778 171H283.703ZM314.528 78.525H318.353C320.903 78.525 322.703 77.25 323.753 74.7C324.953 72.15 325.553 67.8 325.553 61.65V47.475C325.553 36.075 323.153 30.375 318.353 30.375H314.528C312.278 30.375 311.153 31.5 311.153 33.75V75.15C311.153 77.4 312.278 78.525 314.528 78.525ZM386.412 171C384.162 171 383.037 169.875 383.037 167.625V5.625C383.037 3.37499 384.162 2.24999 386.412 2.24999H410.487C412.737 2.24999 413.862 3.37499 413.862 5.625V167.625C413.862 169.875 412.737 171 410.487 171H386.412ZM440.591 132.3V122.4C440.591 120.15 441.716 119.025 443.966 119.025H468.491C470.441 119.025 471.416 120.15 471.416 122.4V127.35C471.416 133.65 471.866 138.075 472.766 140.625C473.666 143.025 475.541 144.225 478.391 144.225C481.091 144.225 482.891 143.1 483.791 140.85C484.691 138.6 485.141 134.7 485.141 129.15V124.2C485.141 119.7 483.866 115.65 481.316 112.05C478.766 108.3 474.266 103.425 467.816 97.425C467.666 97.275 466.166 95.925 463.316 93.375C460.616 90.825 459.041 89.325 458.591 88.875C458.141 88.275 456.716 86.775 454.316 84.375C451.916 81.825 450.341 79.95 449.591 78.75C448.991 77.55 447.866 75.675 446.216 73.125C444.716 70.575 443.666 68.325 443.066 66.375C442.466 64.425 441.866 62.1 441.266 59.4C440.816 56.55 440.591 53.7 440.591 50.85V40.95C440.591 28.35 443.966 18.525 450.716 11.475C457.466 4.27499 466.691 0.674993 478.391 0.674993C489.941 0.674993 499.091 4.27499 505.841 11.475C512.741 18.675 516.191 28.5 516.191 40.95V50.85C516.191 53.1 515.066 54.225 512.816 54.225H488.516C486.266 54.225 485.141 53.1 485.141 50.85V45.45C485.141 39.45 484.691 35.25 483.791 32.85C482.891 30.3 481.091 29.025 478.391 29.025C475.541 29.025 473.666 30.15 472.766 32.4C471.866 34.65 471.416 38.55 471.416 44.1V49.05C471.416 53.55 472.691 57.525 475.241 60.975C477.791 64.425 482.441 69.3 489.191 75.6C498.341 84 504.416 90.375 507.416 94.725C513.266 103.125 516.191 112.35 516.191 122.4V132.3C516.191 144.75 512.741 154.575 505.841 161.775C499.091 168.975 489.941 172.575 478.391 172.575C466.691 172.575 457.466 169.05 450.716 162C443.966 154.8 440.591 144.9 440.591 132.3ZM538.466 132.3V122.4C538.466 120.15 539.591 119.025 541.841 119.025H566.366C568.316 119.025 569.291 120.15 569.291 122.4V127.35C569.291 133.65 569.741 138.075 570.641 140.625C571.541 143.025 573.416 144.225 576.266 144.225C578.966 144.225 580.766 143.1 581.666 140.85C582.566 138.6 583.016 134.7 583.016 129.15V124.2C583.016 119.7 581.741 115.65 579.191 112.05C576.641 108.3 572.141 103.425 565.691 97.425C565.541 97.275 564.041 95.925 561.191 93.375C558.491 90.825 556.916 89.325 556.466 88.875C556.016 88.275 554.591 86.775 552.191 84.375C549.791 81.825 548.216 79.95 547.466 78.75C546.866 77.55 545.741 75.675 544.091 73.125C542.591 70.575 541.541 68.325 540.941 66.375C540.341 64.425 539.741 62.1 539.141 59.4C538.691 56.55 538.466 53.7 538.466 50.85V40.95C538.466 28.35 541.841 18.525 548.591 11.475C555.341 4.27499 564.566 0.674993 576.266 0.674993C587.816 0.674993 596.966 4.27499 603.716 11.475C610.616 18.675 614.066 28.5 614.066 40.95V50.85C614.066 53.1 612.941 54.225 610.691 54.225H586.391C584.141 54.225 583.016 53.1 583.016 50.85V45.45C583.016 39.45 582.566 35.25 581.666 32.85C580.766 30.3 578.966 29.025 576.266 29.025C573.416 29.025 571.541 30.15 570.641 32.4C569.741 34.65 569.291 38.55 569.291 44.1V49.05C569.291 53.55 570.566 57.525 573.116 60.975C575.666 64.425 580.316 69.3 587.066 75.6C596.216 84 602.291 90.375 605.291 94.725C611.141 103.125 614.066 112.35 614.066 122.4V132.3C614.066 144.75 610.616 154.575 603.716 161.775C596.966 168.975 587.816 172.575 576.266 172.575C564.566 172.575 555.341 169.05 548.591 162C541.841 154.8 538.466 144.9 538.466 132.3ZM641.066 167.625V5.625C641.066 3.37499 642.191 2.24999 644.441 2.24999H692.366C694.616 2.24999 695.741 3.37499 695.741 5.625V26.325C695.741 28.575 694.616 29.7 692.366 29.7H675.266C673.016 29.7 671.891 30.825 671.891 33.075V68.85C671.891 71.1 673.016 72.225 675.266 72.225H692.366C694.616 72.225 695.741 73.35 695.741 75.6V96.3C695.741 98.55 694.616 99.675 692.366 99.675H675.266C673.016 99.675 671.891 100.8 671.891 103.05V140.175C671.891 142.425 673.016 143.55 675.266 143.55H692.366C694.616 143.55 695.741 144.675 695.741 146.925V167.625C695.741 169.875 694.616 171 692.366 171H644.441C642.191 171 641.066 169.875 641.066 167.625Z" fill="#1E0031"/>
</svg>
